<?xml version="1.0" encoding="UTF-8"?>
<!DOCTYPE svg PUBLIC "-//W3C//DTD SVG 1.1//EN" "http://www.w3.org/Graphics/SVG/1.1/DTD/svg11.dtd">
<!-- Creator: CorelDRAW X7 -->
<svg xmlns="http://www.w3.org/2000/svg" xml:space="preserve" width="115.704mm" height="115.358mm" version="1.1" style="shape-rendering:geometricPrecision; text-rendering:geometricPrecision; image-rendering:optimizeQuality; fill-rule:evenodd; clip-rule:evenodd"
viewBox="0 0 11475 11441"
 xmlns:xlink="http://www.w3.org/1999/xlink">
 <defs>
  <style type="text/css">
   <![CDATA[
    .fil0 {fill:#5B5B5B}
    .fil1 {fill:#E5097F}
   ]]>
  </style>
 </defs>
 <g id="Layer_x0020_1">
  <metadata id="CorelCorpID_0Corel-Layer"/>
  <rect class="fil0" width="11475" height="11441"/>
  <path class="fil1" d="M744 419l10083 0 0 5867c-72,-150 -156,-288 -253,-413 -415,-537 -1038,-805 -1868,-805l-107 0c-43,0 -79,4 -107,11 -673,64 -1181,307 -1524,730 -50,35 -100,96 -150,182 -172,-286 -415,-512 -730,-676 -315,-165 -647,-247 -998,-247 -794,0 -1309,243 -1545,730l-21 0 0 -547 -1310 0 0 5761 -1470 0 0 -10593zm8960 10593l-2317 0 0 -2986c0,-214 25,-438 75,-674 57,-265 191,-478 402,-637 211,-161 456,-241 735,-241l107 0c408,57 687,236 837,535 108,221 161,565 161,1028l0 2975zm-3745 0l-2317 0 0 -2868c0,-1114 386,-1670 1159,-1670 414,0 726,161 933,481 150,229 225,590 225,1082l0 2975z"/>
 </g>
</svg>
