<?xml version="1.0" encoding="utf-8"?>
<!-- Generator: Adobe Illustrator 19.2.0, SVG Export Plug-In . SVG Version: 6.00 Build 0)  -->
<svg version="1.1" id="Layer_1" xmlns="http://www.w3.org/2000/svg" xmlns:xlink="http://www.w3.org/1999/xlink" x="0px" y="0px"
	 viewBox="0 0 1200 150" style="enable-background:new 0 0 1200 150;" xml:space="preserve">
<style type="text/css">
	.st0{fill-rule:evenodd;clip-rule:evenodd;fill:#1A171B;}
</style>
<g>
	<polygon class="st0" points="1200,150 595.7,150 595.7,119.8 598.9,119.8 601.2,99.4 607.4,111.2 616.6,99.6 627.7,111.1 
		634.1,100.1 634.9,119.8 638.9,119.8 638.9,113.7 642.5,117.1 648.3,102 652.4,116.4 655.5,114 655.5,119.8 664.5,119.8 
		664.5,112.1 672.2,112.1 672.2,119.8 678.2,119.8 678.2,73.8 678.2,64.5 678.2,54 684.3,64.4 684.3,71.2 691,71.2 704.7,59.3 
		706.1,37.6 709.5,58.3 712.9,62.9 722.1,72.1 725.9,72.1 726.1,66.3 733.8,56.6 733.7,73.8 733.7,119.8 743.1,119.8 743.1,106.9 
		743.1,95 747.5,105.4 759.4,95.9 768.2,104.7 773.8,95.3 774.5,106.9 774.5,112 806.9,111.5 806.9,102.6 811.8,101.1 812.2,100.3 
		812.2,92.9 818.8,92.9 818.8,101.4 822.3,102.6 822.3,111.2 826.8,111.2 826.8,101.6 829,101.6 829,95.8 831.5,95.8 831.5,91.3 
		833.7,91.3 833.7,87.7 835.9,87.7 835.9,91.3 837.5,91.3 837.5,95.8 839.9,95.8 839.9,101.6 841.9,101.6 841.9,110.9 856.7,110.7 
		856.7,91.3 863.2,87.6 863.2,79.1 868,75.6 868,61.7 871.3,61.7 871.3,75.6 876.4,79.1 876.4,87.6 883,91.3 883,110.2 885.4,110.2 
		885.4,102.3 885.6,91 890.1,101.7 897.9,93.8 901.2,99.4 904.7,90.5 908.7,99.5 915.6,91.2 916.1,102.3 916.1,113.4 936,113.4 
		936,106.6 949.5,106.6 949.5,113.4 958.7,113.4 958.7,106.1 974.1,106.1 974.1,113.4 981.4,113.4 981.4,106.2 996.3,106.2 
		996.3,113.4 1033,113.4 1033,103.3 1034.3,103.3 1034.3,97.6 1035.1,97.6 1035.1,93.6 1036.7,93.6 1036.7,89.1 1040.4,89.1 
		1040.4,93.6 1042.1,93.6 1042.1,97.6 1043.1,97.6 1043.1,103.3 1044.9,103.3 1044.9,113.4 1052.4,113.4 1052.4,98 1052.5,87.4 
		1057.6,94.3 1060.5,90.7 1062.9,98 1069.4,98 1076,87.6 1079,94.1 1083.5,88.8 1083.6,98 1083.6,107.8 1109.4,107.8 1109.4,100.2 
		1109.4,87.1 1116.4,97.4 1119.6,94.9 1128.3,95.2 1131.1,98.4 1133.7,87.5 1137.9,93 1138.6,100.2 1138.6,109.8 1147.1,109.8 
		1147.1,117 1163.6,117 1163.6,84.8 1161,82.4 1161,69 1171.1,58.5 1171.1,49.7 1177.2,43.8 1177.2,28.8 1179.1,28.8 1179.1,43.8 
		1185.6,49.7 1185.6,58.5 1194.9,69 1194.9,82.4 1193.4,84.8 1193.4,119.8 1200,119.8 	"/>
</g>
</svg>
